<mxfile host="0cb6dfbe-8975-4d4b-bd70-15ed1ec61764" modified="2020-08-25T04:53:44.107Z" agent="5.0 (Windows NT 10.0; Win64; x64) AppleWebKit/537.36 (KHTML, like Gecko) Code/1.47.3 Chrome/78.0.3904.130 Electron/7.3.2 Safari/537.36" etag="oLpGCyJusTEeuR_9BIOE" version="13.1.3">
    <diagram id="6hGFLwfOUW9BJ-s0fimq" name="Page-1">
        <mxGraphModel dx="1543" dy="1178" grid="1" gridSize="10" guides="1" tooltips="1" connect="1" arrows="1" fold="1" page="1" pageScale="1" pageWidth="600" pageHeight="700" math="0" shadow="0">
            <root>
                <mxCell id="0"/>
                <mxCell id="1" parent="0"/>
                <mxCell id="110" value="" style="rounded=0;whiteSpace=wrap;html=1;" parent="1" vertex="1">
                    <mxGeometry width="600" height="700" as="geometry"/>
                </mxCell>
                <mxCell id="5" value="勤務名称" style="text;html=1;strokeColor=none;fillColor=none;align=left;verticalAlign=middle;whiteSpace=wrap;rounded=0;" parent="1" vertex="1">
                    <mxGeometry x="40" y="110" width="120" height="20" as="geometry"/>
                </mxCell>
                <mxCell id="11" value="始業・就業" style="text;html=1;strokeColor=none;fillColor=none;align=left;verticalAlign=middle;whiteSpace=wrap;rounded=0;" parent="1" vertex="1">
                    <mxGeometry x="165" y="110" width="120" height="20" as="geometry"/>
                </mxCell>
                <mxCell id="13" value="" style="group" parent="1" vertex="1" connectable="0">
                    <mxGeometry x="40" y="130" width="120" height="30" as="geometry"/>
                </mxCell>
                <mxCell id="4" value="" style="rounded=1;whiteSpace=wrap;html=1;" parent="13" vertex="1">
                    <mxGeometry width="120" height="30" as="geometry"/>
                </mxCell>
                <mxCell id="7" value="" style="triangle;whiteSpace=wrap;html=1;align=left;rotation=89;labelBackgroundColor=#2E1616;fillColor=#f5f5f5;strokeColor=#666666;fontColor=#333333;" parent="13" vertex="1">
                    <mxGeometry x="100" y="10" width="10" height="10" as="geometry"/>
                </mxCell>
                <mxCell id="23" value="" style="group" parent="1" vertex="1" connectable="0">
                    <mxGeometry x="170" y="130" width="70" height="30" as="geometry"/>
                </mxCell>
                <mxCell id="14" value="" style="group" parent="23" vertex="1" connectable="0">
                    <mxGeometry width="70" height="30" as="geometry"/>
                </mxCell>
                <mxCell id="27" value="" style="group" parent="14" vertex="1" connectable="0">
                    <mxGeometry width="70" height="30" as="geometry"/>
                </mxCell>
                <mxCell id="15" value="" style="rounded=1;whiteSpace=wrap;html=1;" parent="27" vertex="1">
                    <mxGeometry width="70" height="30" as="geometry"/>
                </mxCell>
                <mxCell id="21" value="" style="triangle;whiteSpace=wrap;html=1;align=left;rotation=89;labelBackgroundColor=#2E1616;fillColor=#f5f5f5;strokeColor=#666666;fontColor=#333333;" parent="27" vertex="1">
                    <mxGeometry x="55" y="10" width="10" height="10" as="geometry"/>
                </mxCell>
                <mxCell id="31" value="" style="rounded=1;whiteSpace=wrap;html=1;" parent="1" vertex="1">
                    <mxGeometry x="170" y="170" width="70" height="30" as="geometry"/>
                </mxCell>
                <mxCell id="32" value="" style="triangle;whiteSpace=wrap;html=1;align=left;rotation=89;labelBackgroundColor=#2E1616;fillColor=#f5f5f5;strokeColor=#666666;fontColor=#333333;" parent="1" vertex="1">
                    <mxGeometry x="225" y="180" width="10" height="10" as="geometry"/>
                </mxCell>
                <mxCell id="33" value="" style="rounded=1;whiteSpace=wrap;html=1;labelBackgroundColor=#2E1616;align=left;" parent="1" vertex="1">
                    <mxGeometry x="250" y="130" width="40" height="30" as="geometry"/>
                </mxCell>
                <mxCell id="38" value="" style="rounded=1;whiteSpace=wrap;html=1;labelBackgroundColor=#2E1616;align=left;" parent="1" vertex="1">
                    <mxGeometry x="250" y="170" width="40" height="30" as="geometry"/>
                </mxCell>
                <mxCell id="41" value="時" style="text;html=1;align=center;verticalAlign=middle;resizable=0;points=[];autosize=1;" parent="1" vertex="1">
                    <mxGeometry x="290" y="135" width="30" height="20" as="geometry"/>
                </mxCell>
                <mxCell id="42" value="分～" style="text;html=1;align=center;verticalAlign=middle;resizable=0;points=[];autosize=1;" parent="1" vertex="1">
                    <mxGeometry x="360" y="135" width="40" height="20" as="geometry"/>
                </mxCell>
                <mxCell id="43" value="時" style="text;html=1;align=center;verticalAlign=middle;resizable=0;points=[];autosize=1;" parent="1" vertex="1">
                    <mxGeometry x="290" y="175" width="30" height="20" as="geometry"/>
                </mxCell>
                <mxCell id="44" value="" style="rounded=1;whiteSpace=wrap;html=1;labelBackgroundColor=#2E1616;align=left;" parent="1" vertex="1">
                    <mxGeometry x="320" y="130" width="40" height="30" as="geometry"/>
                </mxCell>
                <mxCell id="45" value="" style="rounded=1;whiteSpace=wrap;html=1;labelBackgroundColor=#2E1616;align=left;" parent="1" vertex="1">
                    <mxGeometry x="320" y="170" width="40" height="30" as="geometry"/>
                </mxCell>
                <mxCell id="46" value="分" style="text;html=1;align=center;verticalAlign=middle;resizable=0;points=[];autosize=1;" parent="1" vertex="1">
                    <mxGeometry x="360" y="175" width="30" height="20" as="geometry"/>
                </mxCell>
                <mxCell id="47" value="&lt;font style=&quot;font-size: 30px&quot;&gt;設定画面&lt;/font&gt;" style="text;html=1;align=center;verticalAlign=middle;resizable=0;points=[];autosize=1;" parent="1" vertex="1">
                    <mxGeometry x="30" y="20" width="140" height="20" as="geometry"/>
                </mxCell>
                <mxCell id="57" value="" style="rounded=1;whiteSpace=wrap;html=1;labelBackgroundColor=#2E1616;align=left;" parent="1" vertex="1">
                    <mxGeometry x="402.5" y="170" width="40" height="30" as="geometry"/>
                </mxCell>
                <mxCell id="58" value="時" style="text;html=1;align=center;verticalAlign=middle;resizable=0;points=[];autosize=1;" parent="1" vertex="1">
                    <mxGeometry x="442.5" y="175" width="30" height="20" as="geometry"/>
                </mxCell>
                <mxCell id="59" value="" style="rounded=1;whiteSpace=wrap;html=1;labelBackgroundColor=#2E1616;align=left;" parent="1" vertex="1">
                    <mxGeometry x="472.5" y="170" width="40" height="30" as="geometry"/>
                </mxCell>
                <mxCell id="60" value="分" style="text;html=1;align=center;verticalAlign=middle;resizable=0;points=[];autosize=1;" parent="1" vertex="1">
                    <mxGeometry x="512.5" y="175" width="30" height="20" as="geometry"/>
                </mxCell>
                <mxCell id="63" value="通常休憩時間" style="text;html=1;align=left;verticalAlign=middle;resizable=0;points=[];autosize=1;" parent="1" vertex="1">
                    <mxGeometry x="402.5" y="150" width="90" height="20" as="geometry"/>
                </mxCell>
                <mxCell id="64" value="開始時刻" style="text;html=1;align=left;verticalAlign=middle;resizable=0;points=[];autosize=1;" parent="1" vertex="1">
                    <mxGeometry x="40" y="290" width="60" height="20" as="geometry"/>
                </mxCell>
                <mxCell id="65" value="" style="group" parent="1" vertex="1" connectable="0">
                    <mxGeometry x="40" y="310" width="70" height="30" as="geometry"/>
                </mxCell>
                <mxCell id="66" value="" style="group" parent="65" vertex="1" connectable="0">
                    <mxGeometry width="70" height="30" as="geometry"/>
                </mxCell>
                <mxCell id="67" value="" style="group" parent="66" vertex="1" connectable="0">
                    <mxGeometry width="70" height="30" as="geometry"/>
                </mxCell>
                <mxCell id="68" value="" style="rounded=1;whiteSpace=wrap;html=1;" parent="67" vertex="1">
                    <mxGeometry width="70" height="30" as="geometry"/>
                </mxCell>
                <mxCell id="69" value="" style="triangle;whiteSpace=wrap;html=1;align=left;rotation=89;labelBackgroundColor=#2E1616;fillColor=#f5f5f5;strokeColor=#666666;fontColor=#333333;" parent="67" vertex="1">
                    <mxGeometry x="55" y="10" width="10" height="10" as="geometry"/>
                </mxCell>
                <mxCell id="72" value="" style="rounded=1;whiteSpace=wrap;html=1;labelBackgroundColor=#2E1616;align=left;" parent="1" vertex="1">
                    <mxGeometry x="125" y="310" width="40" height="30" as="geometry"/>
                </mxCell>
                <mxCell id="73" value="時" style="text;html=1;align=center;verticalAlign=middle;resizable=0;points=[];autosize=1;" parent="1" vertex="1">
                    <mxGeometry x="165" y="315" width="30" height="20" as="geometry"/>
                </mxCell>
                <mxCell id="74" value="" style="rounded=1;whiteSpace=wrap;html=1;labelBackgroundColor=#2E1616;align=left;" parent="1" vertex="1">
                    <mxGeometry x="195" y="310" width="40" height="30" as="geometry"/>
                </mxCell>
                <mxCell id="75" value="分" style="text;html=1;align=center;verticalAlign=middle;resizable=0;points=[];autosize=1;" parent="1" vertex="1">
                    <mxGeometry x="235" y="315" width="30" height="20" as="geometry"/>
                </mxCell>
                <mxCell id="76" value="" style="group" parent="1" vertex="1" connectable="0">
                    <mxGeometry x="280" y="310" width="70" height="30" as="geometry"/>
                </mxCell>
                <mxCell id="77" value="" style="group" parent="76" vertex="1" connectable="0">
                    <mxGeometry width="70" height="30" as="geometry"/>
                </mxCell>
                <mxCell id="78" value="" style="group" parent="77" vertex="1" connectable="0">
                    <mxGeometry width="70" height="30" as="geometry"/>
                </mxCell>
                <mxCell id="79" value="" style="rounded=1;whiteSpace=wrap;html=1;" parent="78" vertex="1">
                    <mxGeometry width="70" height="30" as="geometry"/>
                </mxCell>
                <mxCell id="80" value="" style="triangle;whiteSpace=wrap;html=1;align=left;rotation=89;labelBackgroundColor=#2E1616;fillColor=#f5f5f5;strokeColor=#666666;fontColor=#333333;" parent="78" vertex="1">
                    <mxGeometry x="55" y="10" width="10" height="10" as="geometry"/>
                </mxCell>
                <mxCell id="81" value="" style="rounded=1;whiteSpace=wrap;html=1;labelBackgroundColor=#2E1616;align=left;" parent="1" vertex="1">
                    <mxGeometry x="365" y="310" width="40" height="30" as="geometry"/>
                </mxCell>
                <mxCell id="82" value="時" style="text;html=1;align=center;verticalAlign=middle;resizable=0;points=[];autosize=1;" parent="1" vertex="1">
                    <mxGeometry x="405" y="315" width="30" height="20" as="geometry"/>
                </mxCell>
                <mxCell id="83" value="" style="rounded=1;whiteSpace=wrap;html=1;labelBackgroundColor=#2E1616;align=left;" parent="1" vertex="1">
                    <mxGeometry x="435" y="310" width="40" height="30" as="geometry"/>
                </mxCell>
                <mxCell id="84" value="分" style="text;html=1;align=center;verticalAlign=middle;resizable=0;points=[];autosize=1;" parent="1" vertex="1">
                    <mxGeometry x="475" y="315" width="30" height="20" as="geometry"/>
                </mxCell>
                <mxCell id="86" value="打刻なし理由／遅刻・早退・時間内外出事由" style="text;html=1;align=left;verticalAlign=middle;resizable=0;points=[];autosize=1;fontSize=17;" parent="1" vertex="1">
                    <mxGeometry x="37.5" y="410" width="360" height="20" as="geometry"/>
                </mxCell>
                <mxCell id="87" value="" style="group" parent="1" vertex="1" connectable="0">
                    <mxGeometry x="37.5" y="480" width="120" height="30" as="geometry"/>
                </mxCell>
                <mxCell id="88" value="" style="rounded=1;whiteSpace=wrap;html=1;" parent="87" vertex="1">
                    <mxGeometry width="120" height="30" as="geometry"/>
                </mxCell>
                <mxCell id="89" value="" style="triangle;whiteSpace=wrap;html=1;align=left;rotation=89;labelBackgroundColor=#2E1616;fillColor=#f5f5f5;strokeColor=#666666;fontColor=#333333;" parent="87" vertex="1">
                    <mxGeometry x="100" y="10" width="10" height="10" as="geometry"/>
                </mxCell>
                <mxCell id="90" value="勤務情報" style="text;html=1;align=left;verticalAlign=middle;resizable=0;points=[];autosize=1;fontSize=17;" parent="1" vertex="1">
                    <mxGeometry x="40" y="60" width="80" height="20" as="geometry"/>
                </mxCell>
                <mxCell id="91" value="深夜休憩時間" style="text;html=1;align=left;verticalAlign=middle;resizable=0;points=[];autosize=1;fontSize=17;" parent="1" vertex="1">
                    <mxGeometry x="37.5" y="240" width="120" height="20" as="geometry"/>
                </mxCell>
                <mxCell id="93" value="終了時刻" style="text;html=1;align=left;verticalAlign=middle;resizable=0;points=[];autosize=1;" parent="1" vertex="1">
                    <mxGeometry x="277.5" y="290" width="60" height="20" as="geometry"/>
                </mxCell>
                <mxCell id="97" value="打刻なし理由" style="text;html=1;align=left;verticalAlign=middle;resizable=0;points=[];autosize=1;" parent="1" vertex="1">
                    <mxGeometry x="37.5" y="460" width="90" height="20" as="geometry"/>
                </mxCell>
                <mxCell id="99" value="打刻乖離理由" style="text;html=1;align=left;verticalAlign=middle;resizable=0;points=[];autosize=1;" parent="1" vertex="1">
                    <mxGeometry x="37.5" y="520" width="90" height="20" as="geometry"/>
                </mxCell>
                <mxCell id="101" value="" style="group" parent="1" vertex="1" connectable="0">
                    <mxGeometry x="37.5" y="540" width="120" height="30" as="geometry"/>
                </mxCell>
                <mxCell id="102" value="" style="rounded=1;whiteSpace=wrap;html=1;" parent="101" vertex="1">
                    <mxGeometry width="120" height="30" as="geometry"/>
                </mxCell>
                <mxCell id="103" value="" style="triangle;whiteSpace=wrap;html=1;align=left;rotation=89;labelBackgroundColor=#2E1616;fillColor=#f5f5f5;strokeColor=#666666;fontColor=#333333;" parent="101" vertex="1">
                    <mxGeometry x="100" y="10" width="10" height="10" as="geometry"/>
                </mxCell>
                <mxCell id="104" value="" style="shape=link;html=1;fontSize=17;" parent="1" edge="1">
                    <mxGeometry width="50" height="50" relative="1" as="geometry">
                        <mxPoint x="40" y="89" as="sourcePoint"/>
                        <mxPoint x="560" y="89" as="targetPoint"/>
                    </mxGeometry>
                </mxCell>
                <mxCell id="105" value="" style="shape=link;html=1;fontSize=17;" parent="1" edge="1">
                    <mxGeometry width="50" height="50" relative="1" as="geometry">
                        <mxPoint x="40" y="270" as="sourcePoint"/>
                        <mxPoint x="560" y="270" as="targetPoint"/>
                    </mxGeometry>
                </mxCell>
                <mxCell id="106" value="" style="shape=link;html=1;fontSize=17;" parent="1" edge="1">
                    <mxGeometry width="50" height="50" relative="1" as="geometry">
                        <mxPoint x="37.5" y="440" as="sourcePoint"/>
                        <mxPoint x="557.5" y="440" as="targetPoint"/>
                    </mxGeometry>
                </mxCell>
                <mxCell id="107" value="保存" style="rounded=1;whiteSpace=wrap;html=1;labelBackgroundColor=none;fontSize=17;align=center;fillColor=#d5e8d4;strokeColor=#82b366;" parent="1" vertex="1">
                    <mxGeometry x="40" y="610" width="250" height="40" as="geometry"/>
                </mxCell>
                <mxCell id="109" value="クリア" style="rounded=1;whiteSpace=wrap;html=1;labelBackgroundColor=none;fontSize=17;align=center;fillColor=#f8cecc;strokeColor=#b85450;" parent="1" vertex="1">
                    <mxGeometry x="310" y="610" width="250" height="40" as="geometry"/>
                </mxCell>
                <mxCell id="111" value="" style="rounded=0;whiteSpace=wrap;html=1;imageHeight=26;" vertex="1" parent="1">
                    <mxGeometry x="402.5" y="130" width="10" height="10" as="geometry"/>
                </mxCell>
                <mxCell id="112" value="修正" style="text;html=1;align=center;verticalAlign=middle;resizable=0;points=[];autosize=1;" vertex="1" parent="1">
                    <mxGeometry x="412.5" y="125" width="40" height="20" as="geometry"/>
                </mxCell>
            </root>
        </mxGraphModel>
    </diagram>
</mxfile>